<?xml version="1.0" encoding="UTF-8"?><svg id="Layer_1" xmlns="http://www.w3.org/2000/svg" viewBox="0 0 500 500"><defs><style>.cls-1{fill:#7f7f7f;}</style></defs><g id="Year_Round_icon"><path class="cls-1" d="M.52,233.74c0-43.29,0-86.57,0-129.86,0-25.33,17.04-44.89,42.22-48.24,2.45-.33,2.93-1.21,2.85-3.37-.14-3.71-.09-7.42-.02-11.13,.23-12.89,10.55-22.87,23.59-22.83,12.74,.04,23.09,10.23,23.24,22.93,.05,3.9,.07,7.8-.02,11.7-.03,1.58,.46,2.18,2.1,2.16,7.32-.08,14.65-.1,21.97-.01,1.97,.02,2.34-.78,2.36-2.52,.08-5.03-.54-10.09,.38-15.09,2.21-11.97,12.62-19.91,24.97-19.13,11.64,.73,20.95,10.4,21.42,22.36,.16,4.08,.09,8.18,.03,12.27-.03,1.61,.54,2.12,2.16,2.11,7.42-.08,14.84-.09,22.26,0,1.73,.02,2.03-.65,2.02-2.15,0-4.56-.25-9.13,.21-13.69,1.26-12.59,11.85-21.51,24.81-20.92,11.9,.55,21.73,10.78,21.91,22.86,.06,3.9,.06,7.8-.01,11.7-.03,1.51,.28,2.22,2.02,2.2,7.42-.09,14.84-.08,22.26-.01,1.64,.02,2.17-.53,2.14-2.13-.07-3.99-.09-7.99,0-11.99,.28-12.49,10.49-22.55,22.92-22.65,13-.11,23.4,9.54,23.88,22.25,.16,4.09,.12,8.18,.04,12.27-.04,1.76,.58,2.27,2.31,2.25,7.32-.08,14.65-.07,21.97,0,1.63,.02,2.13-.5,2.12-2.11-.04-4.66-.37-9.37,.22-13.96,1.68-13.09,12.27-21.56,25.29-20.66,12.02,.83,21.23,10.95,21.45,23.62,.06,3.61,.09,7.23-.03,10.84-.06,1.9,.53,2.52,2.5,2.79,20.94,2.91,36.39,16.49,41.27,36.13,.94,3.8,1.38,7.67,1.38,11.58,0,46.23,.03,92.47-.06,138.7,0,2.64,.85,3.96,3.14,5.25,35.33,19.95,57.81,49.64,63.99,89.84,7.05,45.8-7.81,84.53-42.92,114.77-25.23,21.74-55.19,31.7-88.36,29.55-46.34-3-81.21-25.3-104.35-65.61-1.71-2.99-3.4-3.95-6.77-3.95-68.5,.11-136.99,.1-205.49,.08-22.39,0-40.64-12.89-47.19-33.19-1.56-4.84-2.22-9.79-2.21-14.88,.04-43.38,.02-86.76,.02-130.14Zm278.78,39.39c-3.11,0-5.65,.09-8.18-.02-5.26-.22-8.92-3.95-8.83-8.89,.09-4.94,3.84-8.48,9.14-8.51,6.56-.04,13.13-.01,19.69,0,1.24,0,2.55-.09,3.6,.64,1.67,1.16,2.83,.44,4.28-.56,34.03-23.77,71.05-29.82,110.95-18.61,3.32,.93,3.32,.99,3.32-2.54,0-30.92,0-61.83,0-92.75q0-3.93-4.02-3.93c-129.09,0-258.17,0-387.26,.01-4.52,0-4.03-.63-4.03,4.17-.01,73.53,0,147.07-.01,220.6,0,18.72,12.98,31.71,31.76,31.72,47.75,0,95.51,0,143.26,0,18.84,0,37.67,0,56.51,0,3.19,0,3.21-.02,2.29-3.16-2.27-7.78-3.83-15.71-4.44-23.77-2.48-32.61,6.28-61.86,26.46-87.64,1.67-2.13,3.42-4.19,5.51-6.74Zm202.72,83.56c-.03-15.32-3.07-29.66-9.15-43.16-26.41-58.6-97.72-81.86-153.67-50.12-45.9,26.04-66.44,81.04-48.42,129.64,18.95,51.11,72.68,80.42,125.95,68.69,49.73-10.94,85.38-54.85,85.29-105.06ZM215.45,120.45c19.78,0,39.57,0,59.35,0,45.09,0,90.17-.02,135.26,.05,2.42,0,3.38-.51,3.27-3.13-.21-4.94,0-9.89-.08-14.84-.23-14.41-11.05-26.94-25.2-29.4-2.02-.35-2.48,.3-2.45,2.16,.06,3.13,.11,6.27-.31,9.4-1.49,11.16-11.15,19.87-22.46,20.14-11.56,.28-21.72-7.88-23.76-19-.68-3.69-.39-7.4-.42-11.1-.01-1.54-.44-2.23-2.1-2.22-7.32,.06-14.65,.06-21.97,0-1.75-.02-2.37,.66-2.32,2.35,.07,2.38,.06,4.76-.02,7.13-.4,12.19-9.34,21.57-21.68,22.78-11.17,1.1-21.96-6.92-24.63-18.23-.91-3.86-.42-7.77-.54-11.65-.04-1.39-.19-2.39-1.98-2.38-7.51,.05-15.03,.04-22.54,0-1.57,0-1.91,.76-1.88,2.13,.06,2.28,.03,4.57,.01,6.85-.09,12.07-8.94,21.73-21.25,23.23-11.02,1.34-21.98-6.37-24.87-17.47-1.07-4.11-.85-8.3-.83-12.48,0-1.46-.22-2.29-1.99-2.27-7.42,.07-14.84,.06-22.26,0-1.61-.01-2.2,.63-2.18,2.19,.04,2.76,.07,5.52-.08,8.27-.63,11.73-10.01,21.01-22.01,21.83-11.34,.77-22.02-7.51-24.27-18.71-.76-3.78-.42-7.58-.46-11.38-.02-1.57-.49-2.21-2.12-2.2-7.32,.05-14.65,.05-21.97,0-1.7-.01-2.42,.52-2.34,2.29,.11,2.28,.04,4.56,.02,6.85-.11,11.01-7.9,20.51-18.54,22.63-11.11,2.22-21.95-3.44-26.48-13.61-2.19-4.91-1.84-10.04-1.79-15.15,.02-2.17-.56-2.81-2.81-2.38-14.26,2.76-24.54,14.81-24.81,29.35-.09,4.66-.02,9.32-.02,13.98q0,3.95,4.02,3.95c64.49,0,128.98,0,193.47,0ZM74.96,61.49c0-6.27,.03-12.53,0-18.8-.02-4.3-2.23-6.82-5.89-6.87-3.63-.05-6.1,2.5-6.13,6.69-.07,12.72-.07,25.44,0,38.16,.02,3.96,2.52,6.61,5.94,6.66,3.54,.06,6.04-2.66,6.07-6.76,.05-6.36,.01-12.72,.02-19.08Zm61.3,.1h.01c0,6.28-.03,12.55,0,18.83,.02,4.14,2.47,6.94,5.94,6.92,3.52-.02,6.04-2.71,6.06-6.87,.07-12.65,.07-25.29,0-37.94-.02-4.22-2.49-6.75-6.14-6.7-3.62,.05-5.84,2.64-5.86,6.93-.03,6.28,0,12.55,0,18.83Zm219.84-.06c0,6.28-.02,12.55,0,18.83,.02,4.14,2.42,6.94,5.91,6.98,3.5,.03,6.09-2.75,6.1-6.81,.05-12.65,.04-25.29,0-37.94-.01-4.16-2.47-6.8-6.09-6.76-3.6,.03-5.91,2.67-5.93,6.89-.03,6.28,0,12.55-.01,18.83Zm-134.56,.06c0-6.28,.02-12.55,0-18.83-.02-4.28-2.23-6.86-5.86-6.93-3.77-.07-6.11,2.52-6.13,6.98-.04,12.55-.05,25.11,0,37.66,.01,4.15,2.53,6.92,6.02,6.87,3.54-.05,5.95-2.8,5.97-6.91,.03-6.28,0-12.55,0-18.83Zm73.24-.07h0c0-6.45,.04-12.91-.01-19.36-.03-3.94-2.48-6.4-6.11-6.34-3.44,.06-5.76,2.53-5.77,6.38-.03,12.91,0,25.82-.01,38.72,0,1.35,.12,2.66,1,3.77,1.68,2.1,3.75,3.21,6.48,2.36,2.73-.85,4.37-2.67,4.4-5.6,.05-6.64,.02-13.29,.02-19.93Z"/><path class="cls-1" d="M149.67,255.71c3.52,0,7.03-.06,10.55,.01,4.76,.1,8.35,3.56,8.6,8.17,.25,4.64-2.89,8.81-7.62,9.03-7.58,.35-15.2,.36-22.79,.05-4.86-.2-7.95-4.35-7.68-9.23,.26-4.61,3.81-7.93,8.68-8.01,3.42-.06,6.84-.01,10.26-.01Z"/><path class="cls-1" d="M149.65,224.88c-3.42,0-6.84,.06-10.26-.02-4.93-.12-8.42-3.41-8.67-8.03-.26-4.95,2.98-9.1,7.98-9.31,7.3-.3,14.64-.29,21.95,0,5,.19,8.42,4.39,8.17,9.19-.25,4.71-3.86,8.06-8.9,8.16-3.42,.07-6.84,.01-10.26,0Z"/><path class="cls-1" d="M149.9,159.3c3.33,0,6.65-.05,9.98,.02,5.18,.1,8.94,3.83,8.94,8.75,0,4.92-3.75,8.65-8.98,8.72-6.75,.09-13.5,.09-20.25,0-5.28-.07-8.9-3.74-8.88-8.76,.02-5.02,3.65-8.58,8.92-8.72,1.71-.04,3.42,0,5.13,0,1.71,0,3.42,0,5.13,0Z"/><path class="cls-1" d="M149.52,321.26c-3.33,0-6.65,.05-9.98-.01-5.2-.1-8.85-3.77-8.83-8.79,.02-4.97,3.74-8.61,8.98-8.65,6.65-.05,13.3-.04,19.96,0,5.37,.03,9.22,3.76,9.18,8.8-.04,4.91-3.86,8.59-9.04,8.65-3.42,.04-6.84,0-10.26,0Z"/><path class="cls-1" d="M215.45,159.31c3.42,0,6.84-.06,10.25,.01,5.23,.11,8.83,3.75,8.81,8.8-.02,4.87-3.61,8.59-8.66,8.67-6.83,.11-13.67,.09-20.5,0-5.16-.08-8.95-3.93-8.89-8.8,.06-4.91,3.83-8.57,9.02-8.66,3.32-.06,6.64-.01,9.97-.01Z"/><path class="cls-1" d="M149.52,369.36c-3.42,0-6.84,.08-10.26-.02-4.87-.14-8.36-3.54-8.54-8.16-.19-4.88,2.9-8.86,7.86-9.08,7.39-.33,14.82-.34,22.21-.03,4.96,.21,8.22,4.25,8.04,8.99-.18,4.71-3.78,8.18-8.76,8.29-3.51,.08-7.03,.02-10.54,.02h0Z"/><path class="cls-1" d="M215.53,255.7c3.51,0,7.02-.07,10.53,.01,4.67,.11,8.16,3.45,8.43,7.95,.29,4.82-2.56,8.82-7.32,9.19-7.75,.61-15.55,.6-23.3,0-4.58-.35-7.63-4.47-7.4-8.93,.25-4.63,3.8-8.06,8.53-8.23,.19,0,.38,0,.57,0,3.32,0,6.64,0,9.96,0Z"/><path class="cls-1" d="M83.88,159.31c3.42,0,6.83-.06,10.25,.01,5.13,.11,8.97,3.95,8.91,8.8-.06,4.8-3.76,8.58-8.76,8.67-6.83,.11-13.67,.11-20.5,0-5.27-.08-8.84-3.77-8.8-8.81,.04-5.05,3.64-8.57,8.93-8.66,3.32-.05,6.64-.01,9.97-.01Z"/><path class="cls-1" d="M281.34,159.3c3.41,0,6.83-.07,10.24,.02,5.1,.13,8.64,3.69,8.7,8.59,.06,5.07-3.46,8.78-8.71,8.87-6.83,.11-13.66,.12-20.49,0-5.15-.09-8.91-4.01-8.83-8.88,.08-4.86,3.93-8.51,9.12-8.58,3.32-.05,6.64,0,9.96,0Z"/><path class="cls-1" d="M347.3,159.31c3.41,0,6.83-.07,10.24,.02,4.96,.12,8.68,3.9,8.7,8.7,.02,4.67-3.56,8.59-8.38,8.71-7.02,.17-14.04,.17-21.06,.02-5.22-.11-8.73-3.95-8.6-8.99,.12-4.87,3.73-8.34,8.86-8.47,1.71-.04,3.41,0,5.12,0,1.71,0,3.42,0,5.12,0h0Z"/><path class="cls-1" d="M215.54,224.89c-3.32,0-6.65,.05-9.97-.01-5.33-.09-9.01-3.57-9.12-8.52-.11-4.97,3.72-8.79,9.09-8.94,3.22-.09,6.45-.01,9.68,0,3.32,0,6.65-.06,9.97,.01,5.67,.12,9.38,3.7,9.32,8.91-.05,5.14-3.66,8.49-9.29,8.56-3.23,.04-6.45,0-9.68,0h0Z"/><path class="cls-1" d="M84.04,303.79c3.32,0,6.64-.03,9.96,.01,5.17,.07,8.94,3.72,9.03,8.67,.08,4.82-3.81,8.72-8.93,8.77-6.83,.07-13.66,.09-20.49,0-5.04-.06-8.61-3.75-8.63-8.67-.02-5.03,3.63-8.7,8.82-8.78,3.41-.05,6.83,0,10.25,0Z"/><path class="cls-1" d="M215.59,321.26c-3.32,0-6.64,.04-9.96,0-5.34-.07-9.21-3.82-9.17-8.8,.04-4.9,3.82-8.59,9.04-8.64,6.74-.07,13.47-.08,20.21-.01,5.16,.05,8.83,3.79,8.8,8.8-.03,4.87-3.64,8.53-8.67,8.64-3.41,.08-6.83,.01-10.25,.02Z"/><path class="cls-1" d="M347.1,224.89c-3.41,0-6.83,.07-10.24-.02-4.93-.12-8.41-3.39-8.65-8.02-.27-4.98,2.91-9.09,7.93-9.31,7.29-.31,14.61-.28,21.9,0,4.94,.19,8.33,4.22,8.19,8.86-.15,4.84-3.79,8.36-8.88,8.46-3.41,.07-6.83,.01-10.24,.01Z"/><path class="cls-1" d="M83.95,255.7c3.32,0,6.64-.03,9.96,0,5.23,.06,9.01,3.62,9.11,8.53,.11,4.84-3.62,8.72-8.83,8.86-5.5,.15-11,.06-16.51,.03-1.89-.01-3.81,.04-5.67-.26-4.57-.74-7.31-4.44-7.01-9.2,.28-4.43,3.64-7.79,8.13-7.93,3.6-.11,7.21-.02,10.81-.02h0Z"/><path class="cls-1" d="M83.9,224.88c-3.51,0-7.02,.08-10.53-.02-4.72-.14-8.11-3.44-8.37-7.99-.28-4.83,2.56-8.79,7.34-9.2,7.65-.65,15.36-.54,23.02-.06,4.71,.3,7.96,4.62,7.62,9.05-.36,4.75-3.74,8.05-8.55,8.19-3.51,.1-7.02,.02-10.53,.02Z"/><path class="cls-1" d="M281.12,224.87c-3.42,0-6.85,.08-10.27-.02-4.84-.14-8.2-3.45-8.51-8.23-.29-4.44,2.76-8.58,7.4-8.95,7.77-.62,15.6-.65,23.36,.01,4.75,.4,7.52,4.49,7.17,9.37-.31,4.38-3.71,7.65-8.3,7.78-3.61,.11-7.23,.02-10.84,.03Z"/><path class="cls-1" d="M215.44,369.38c-3.33,0-6.66,.05-9.99-.02-5.08-.1-8.66-3.37-8.97-8.11-.31-4.76,3.06-8.96,8.14-9.18,7.31-.31,14.65-.28,21.96,.04,5,.22,8.11,4.13,7.93,9.02-.17,4.64-3.63,8.01-8.51,8.22-1.8,.08-3.61,.03-5.42,.03-1.71,0-3.42,0-5.14,0Z"/><path class="cls-1" d="M84.12,369.37c-3.52,0-7.04,.08-10.56-.02-4.94-.13-8.34-3.42-8.57-8.13-.24-4.93,2.79-8.78,7.81-9.12,7.4-.5,14.83-.48,22.23-.02,4.93,.31,8.27,4.44,7.97,9.07-.3,4.75-3.87,8.09-8.9,8.21-3.33,.08-6.66,.01-9.99,.01h0Z"/><path class="cls-1" d="M358.67,305.97c3.97,.04,6.79,2.21,8.33,6.54,5.13,14.4,10.26,28.8,15.29,43.23,.73,2.1,1.9,3.56,3.7,4.79,7.22,4.93,14.37,9.96,21.52,14.98,4.78,3.36,5.86,8.49,2.77,12.82-2.9,4.07-8.23,4.68-12.88,1.45-8.43-5.85-16.8-11.79-25.32-17.52-2.44-1.64-3.9-3.68-4.84-6.38-5.13-14.7-10.34-29.37-15.52-44.05-.54-1.52-1.17-3.02-1.59-4.57-1.62-5.98,2.47-11.36,8.53-11.3Z"/><path class="cls-1" d="M285.96,365.31c-2.76,0-5.52,.09-8.27-.02-4.41-.18-7.76-3.58-8.1-8.07-.32-4.16,2.58-8.39,6.78-8.92,6.51-.83,13.1-.8,19.61-.02,4.23,.51,7.14,4.7,6.83,8.87-.35,4.68-3.69,8.01-8.3,8.15-2.85,.09-5.7,.02-8.55,.02h0Z"/><path class="cls-1" d="M460.18,365.32c-2.76,0-5.51,.07-8.27-.01-4.52-.14-7.88-3.39-8.27-7.86-.39-4.52,2.53-8.7,7.06-9.22,6.32-.72,12.72-.72,19.04,0,4.54,.52,7.31,4.59,6.95,9.26-.34,4.44-3.71,7.68-8.25,7.81-2.75,.08-5.51,.02-8.27,.02Z"/><path class="cls-1" d="M381.85,442.94c0,2.56,.07,5.13-.02,7.69-.16,4.9-3.72,8.51-8.43,8.65-4.62,.14-8.71-3.35-8.94-8.18-.26-5.59-.28-11.21,.03-16.8,.28-5.06,4.25-8.2,9.3-7.95,4.67,.23,7.91,3.66,8.04,8.61,.07,2.66,.01,5.32,.01,7.98Z"/><path class="cls-1" d="M381.85,270.7c0,2.56,.05,5.13-.01,7.69-.13,4.98-3.34,8.46-7.95,8.7-5.06,.27-9.11-2.85-9.38-7.85-.32-5.68-.31-11.4,0-17.09,.26-4.81,4.49-8.24,9.1-7.98,4.63,.26,8.05,3.76,8.23,8.54,.1,2.66,.02,5.32,.02,7.98h.02Z"/></g></svg>