<?xml version="1.0" encoding="UTF-8"?><svg id="Layer_1" xmlns="http://www.w3.org/2000/svg" viewBox="0 0 500 500"><defs><style>.cls-1{fill:#7f7f7f;}</style></defs><g id="Seasonal_icon"><path class="cls-1" d="M165.16,296.33c12.85-1.69,23.49-7.36,32.14-16.98,17.22-19.13,17.29-48.14,.1-67.35-8.63-9.64-19.25-15.36-32.1-17.06-5.62-.75-6.39-1.67-7.07-7.2-1.47-11.86-6.61-21.76-15.15-30.14-24.07-23.6-62.68-17.9-79.68,10.99-3.65,6.2-5.65,12.98-6.7,20.11-.72,4.87-1.41,5.33-6.17,6.2-1.07,.2-2.17,.27-3.25,.46-24.43,4.31-42.62,25.91-42.5,52.17,.16,4.19,1.08,9.96,3.23,15.42,7.43,18.89,21.25,29.95,41.27,33.34,6.65,1.13,6.66,1.25,7.75,7.78,.12,.72,.17,1.45,.3,2.17,4.61,24.88,25.76,42.38,51.27,42.16,25.09-.22,46.3-19.79,49.62-44.75,.75-5.65,1.43-6.59,6.95-7.32Zm-14.8-17.86c-6.28-.44-10.12,3.26-9.86,9.48,.05,1.09,.27,2.17,.43,3.25,2.04,13.69-2.42,25.02-13.41,33.17-10.66,7.91-22.65,9.05-34.63,3.13-13.02-6.43-20.92-19.51-18.74-35.71,.22-1.62,.66-3.25,.63-4.87-.09-5-3.75-8.54-8.76-8.47-1.81,.02-3.61,.46-5.41,.7-20.17,2.71-38.16-12.96-38.23-33.3-.67-20.87,19.1-36.74,38.92-33.63,.36,.06,.71,.15,1.07,.2,9.37,1.45,13.49-2.6,11.91-12.02-4.35-25.86,19.54-45.22,42.18-38.96,16.55,4.58,27.03,20.75,24.46,37.73-.11,.72-.26,1.44-.34,2.16-.89,8.41,3.27,12.57,11.6,11.17,5.7-.96,11.22-.79,16.75,.86,16.33,4.89,26.67,22.07,23.43,38.34-3.84,19.24-21.27,29.54-37.69,27.43-1.44-.19-2.87-.56-4.32-.67Z"/><path class="cls-1" d="M212.57,119.45c-2.2,1.27-4.17,.84-6.2-.24-4.03-2.13-8.08-4.22-12.1-6.38-4.17-2.25-8.26-4.73-12.76-6.23-4.33-1.44-8.52,.62-10.42,4.74-1.79,3.88-.59,7.89,3.26,10.45,1.51,1,3.25,1.66,4.8,2.62,3.8,2.36,8.07,3.96,11.53,6.83-.86,2.03-2.65,2.29-3.98,3.16-3.81,2.5-8.17,4.12-11.64,7.13-4.08,3.55-4.66,7.52-1.94,11.65,2.53,3.85,6.9,4.81,11.59,2.35,3.39-1.78,6.62-3.85,9.97-5.7,1.53-.85,2.96-2.25,4.98-1.52,1.21,4.18,1.28,5.09,.42,11.27-.43,3.11-.63,6.18,.42,9.2,1.25,3.6,3.98,5.57,7.83,5.72,3.77,.15,6.61-1.73,8.08-5.33,.78-1.9,.84-3.91,.86-5.92,.06-7.66,1.48-15.25,1.13-22.93-.13-2.85,1.17-4.85,3.63-6.23,3.02-1.7,5.93-3.59,9-5.19,6.75-3.51,12.9-8.14,20.4-11.31,.31,1.27,.55,1.79,.56,2.31,.03,10.4-.01,20.79,.09,31.19,.03,3.11-1.34,5.1-3.87,6.68-6.96,4.35-13.88,8.76-20.76,13.23-4.61,2.99-6.18,8.16-3.85,12.23,2.42,4.24,7.39,5.4,12.39,2.64,3.51-1.93,6.82-4.22,10.27-6.27,1.63-.97,3-2.62,5.04-2.5,.28,.41,.47,.56,.48,.71,.12,5.28,.16,10.56,.34,15.84,.19,5.41,3.86,9.72,8.27,9.89,4.69,.18,8.45-3.41,9.05-9.14,.38-3.61,.13-7.29,.29-10.93,.08-1.91-.59-4.04,1.17-5.64,2.1-.23,3.36,1.29,4.87,2.2,3.12,1.88,6.14,3.95,9.3,5.76,5.17,2.96,9.8,2.06,12.42-2.24,2.75-4.51,1.67-8.53-3.3-12.19-1.03-.76-2.11-1.44-3.18-2.13-5.52-3.55-10.97-7.22-16.6-10.6-3.32-2-4.83-4.55-4.75-8.47,.18-8.93,.03-17.87,.07-26.81,0-1.57-.37-3.32,1.03-4.5,.86-.4,1.55-.13,2.18,.23,8.71,4.97,17.4,9.97,26.13,14.92,2.52,1.43,3.21,3.64,3.5,6.36,.74,7.08,1.11,14.17,1.05,21.29-.02,2.38,.09,4.74,.97,7,1.6,4.11,4.68,6.14,8.87,5.82,3.92-.3,6.88-3.07,7.53-7.43,.32-2.15,.27-4.37,.2-6.55-.14-4.31-.42-8.61-.65-13.1,2.44-.17,3.77,1.23,5.31,2.06,4.01,2.16,7.9,4.59,12.03,6.48,4.15,1.9,8.29,.43,10.46-3.17,2.26-3.74,1.48-8.55-1.99-11.34-1.26-1.02-2.84-1.63-4.2-2.55-3.87-2.61-8.45-4.13-12.41-7.89,4.46-2.3,8.47-4.38,12.49-6.45,2.11-1.08,4.25-2.12,5.94-3.85,2.6-2.67,3.3-6.23,1.89-9.58-1.39-3.28-4.07-4.46-7.42-4.62-2.64-.12-4.98,.67-7.3,1.91-6.27,3.35-12.73,6.38-18.88,9.93-3.84,2.22-7.06,1.84-10.69-.32-7.67-4.58-15.49-8.9-23.23-13.37-1.2-.69-2.77-1.16-2.69-3.12,.33-.36,.61-.89,1.05-1.15,9.3-5.41,18.64-10.75,27.92-16.19,2.05-1.2,3.7-.65,5.61,.33,7.93,4.11,15.87,8.23,23.93,12.09,4.67,2.24,9.11,.74,11.29-3.31,2.2-4.09,1.12-8.66-3.14-11.4-3.36-2.16-7.05-3.81-10.55-5.76-1.84-1.02-4.13-1.49-5.08-3.5,.44-1.73,1.69-2.21,2.78-2.83,2.84-1.64,5.7-3.26,8.56-4.87,6.52-3.66,8.97-8.51,6.49-13.06-2.66-4.89-8.84-6.23-15.26-1.9-2.86,1.93-5.98,3.5-9.01,5.17-1.05,.58-2.07,1.65-3.66,.61-.67-1.45-.2-3.06,.01-4.66,.62-4.54,.63-9.11,.33-13.65-.33-4.93-3.38-7.92-7.91-8.27-3.82-.3-7.75,2.52-8.92,6.69-.49,1.73-.63,3.6-.63,5.4,.03,7.3-.47,14.56-1.04,21.84-.25,3.24-1.34,5.49-4.18,7.09-8.26,4.65-16.46,9.42-24.71,14.09-1.01,.57-2.04,1.72-3.88,.39,0-11.15-.03-22.6,.02-34.05,0-2,1.32-3.34,2.92-4.37,3.06-1.99,6.12-3.97,9.19-5.94,4.3-2.76,8.7-5.36,12.88-8.29,4.14-2.9,5.19-7.73,2.84-11.51-2.59-4.16-7.33-5.43-11.89-2.95-2.88,1.56-5.51,3.58-8.39,5.14-2.27,1.24-4.15,3.44-6.95,3.55-.31-.67-.58-.99-.59-1.32-.09-3.46-.15-6.93-.18-10.39-.02-2.56-.05-5.12-.88-7.57-1.49-4.37-5.07-6.9-9.03-6.43-4.17,.5-7.12,3.48-7.53,8.1-.3,3.44-.05,6.93-.22,10.39-.12,2.45,.65,5.05-.75,7.32-2.3,.22-3.59-1.3-5.1-2.19-3.77-2.22-7.33-4.81-11.19-6.86-4.07-2.17-8.4-1.09-10.78,2.19-2.65,3.66-2.13,8.66,1.43,11.84,1.62,1.45,3.49,2.63,5.33,3.81,5.38,3.44,10.74,6.91,16.23,10.16,3.29,1.95,4.97,4.42,4.89,8.39-.17,9.3-.03,18.6-.08,27.91,0,1.37,.44,2.98-1.11,3.93-1.63,.18-2.85-.74-4.08-1.45-7.91-4.54-15.72-9.24-23.71-13.64-3.44-1.9-4.81-4.38-4.86-8.31-.1-8.01-.6-16.02-1.1-24.02-.35-5.59-3.55-8.86-8.41-8.96-4.37-.1-8.32,3.74-8.94,8.74-.3,2.38,.24,4.72,.43,7.08,.29,3.69,1.16,7.47-.42,11.02-2.37,.09-3.73-1.25-5.3-2.12-3.35-1.86-6.57-3.98-10.04-5.56-4.89-2.23-9.7-.73-11.95,3.31-2.24,4.01-.83,8.64,3.78,11.7,2.73,1.81,5.74,3.2,8.46,5.03,2,1.34,4.74,1.8,6.01,4.26-2.12,2.11-4.65,2.79-6.83,4.08-3.45,2.04-7.1,3.81-10.29,6.2-3.67,2.76-4.23,6.96-2.08,10.77,1.9,3.38,5.85,4.92,9.94,3.65,1.9-.59,3.71-1.53,5.48-2.45,6.31-3.28,12.63-6.54,18.86-9.97,2.85-1.57,5.24-1.59,8.12,.17,6.69,4.09,13.64,7.74,20.39,11.73,2.61,1.54,5.5,2.73,7.72,4.8-.28,.6-.33,1.08-.58,1.22-9.63,5.56-19.3,11.05-28.92,16.63Z"/><path class="cls-1" d="M107.64,206.6c-22.04,.11-38.97,16.12-39.04,38.92-.07,22.5,16.47,38.8,38.85,39.13,23.39,.34,39.76-19.72,38.72-38.36,1.16-21.38-16.22-39.8-38.53-39.69Zm-.22,60.74c-11.74-.14-21.55-10.12-21.47-21.85,.08-11.72,10.03-21.59,21.74-21.58,11.38,.01,21.75,10.49,21.64,21.85-.11,11.45-10.54,21.72-21.91,21.58Z"/><path class="cls-1" d="M479.91,203.44c-16.67-27.47-38.11-51.04-60.65-73.68-5.13-5.15-9.76-4.76-15.18,.46-13.28,12.78-25.69,26.35-37.3,40.66-12.2,15.05-23.37,30.77-31.5,48.47-3.37,7.34-6.08,14.92-6.5,23.03-1.24,24.06,6.84,44.79,23.35,62.14,12.45,13.08,27.9,20.86,45.62,24.17,5.14,.96,5.27,1.07,5.36,6.3,.07,4.19,.01,8.39,.01,12.58h.22c0,5.1-.3,10.23,.09,15.3,.34,4.39,3.49,7.2,7.38,7.55,4.35,.39,7.61-1.83,9.14-6.21,.8-2.29,.78-4.66,.78-7.03,.01-7.66-.06-15.31,.06-22.97,.06-4.19,.5-4.56,4.5-5.49,1.6-.37,3.21-.67,4.81-1.06,27.5-6.76,47.29-22.89,58.38-49.01,7.51-17.69,9.54-35.85,2-54.25-2.98-7.27-6.52-14.26-10.58-20.96Zm-7.62,69.13c-8.63,19.58-23.62,31.97-44.13,37.8-1.05,.3-2.13,.53-3.21,.64-2.41,.24-3.84-.82-4.05-3.31-.08-.91-.12-1.82-.12-2.73,0-9.85,.07-19.69-.05-29.54-.04-3.54,1.12-6.26,3.66-8.72,6.42-6.22,12.67-12.6,18.97-18.94,2.26-2.28,3.94-4.79,3.14-8.27-1.44-6.25-7.77-8.94-13.19-5.42-1.81,1.17-3.27,2.88-4.89,4.35-2.12,1.94-3.88,4.29-6.57,5.98-1.6-1.93-1.04-4.01-1.06-5.89-.07-9.85-.04-19.69-.04-29.54,0-2.56-.09-5.12-1.03-7.54-1.43-3.69-4.95-6.12-8.39-5.83-4.18,.35-7.4,3.38-7.99,7.69-.22,1.62-.19,3.27-.19,4.91-.02,10.21,0,20.42-.03,30.63,0,1.76,.31,3.6-.83,5.55-2.73-1.25-4.24-3.61-6.22-5.37-1.91-1.69-3.61-3.67-5.7-5.07-3.58-2.4-8.21-1.72-11.02,1.24-2.68,2.83-3.18,7.15-.99,10.63,.96,1.52,2.27,2.85,3.55,4.14,5.9,5.96,11.78,11.94,17.81,17.78,2.4,2.33,3.48,4.92,3.45,8.25-.1,9.66,.02,19.33-.05,28.99-.04,6.11-1.21,7.09-7.33,5.43-20.77-5.62-35.86-18-44.62-37.88-4.46-10.13-5.68-20.71-4.63-31.57,.56-5.86,3.05-11.22,5.49-16.54,6.82-14.88,16.54-27.87,26.55-40.66,8.89-11.35,18.66-21.92,28.64-32.3,1.36-1.42,2.59-3.07,4.43-3.58,2.1,.19,3.13,1.57,4.21,2.76,12.63,13.87,25.66,27.41,36.57,42.76,6.98,9.82,13.46,19.89,18.97,30.65,8.26,16.16,8.04,32.29,.89,48.51Z"/><path class="cls-1" d="M360.13,384.72c-1.43-.24-2.91-.19-4.37-.21-3.1-.04-6.2-.02-9.3-.06-1.91-.03-3.78-.35-4.24-2.61-1.51-7.47-3.49-14.83-6.06-21.45,1.14-1.88,2.33-2.4,3.42-3.04,3.45-2.04,7.02-3.91,10.33-6.16,4.16-2.83,5.18-7.42,2.89-11.47-2.21-3.92-6.94-5.37-11.42-3.37-1.66,.74-3.11,1.93-4.77,2.66-3.28,1.43-5.88,4.37-10.1,4.58-5.32-5.81-11.01-11.4-16.72-16.78,.55-3.61,2.47-6.09,3.99-8.76,1.53-2.69,3.29-5.29,3.93-8.38,.8-3.88-.56-7.01-3.73-8.94-3.34-2.04-7.06-1.73-10.06,1.08-1.18,1.1-2.11,2.5-2.96,3.89-1.72,2.8-3.37,5.64-4.92,8.53-1.36,2.55-3.23,3.25-5.89,2.14-4.9-2.06-10.09-3.12-15.26-4.24-4.44-.96-5-1.7-5.19-6.28-.16-3.82,.31-7.67-.48-11.46-1.07-5.15-5.04-8.48-9.48-8.06-4.42,.41-7.32,3.82-7.6,9.19-.17,3.09-.04,6.2-.09,9.3-.08,5.77-.37,6.21-5.86,7.28-5.03,.98-9.94,2.31-14.73,4.12-1.34,.51-2.68,1.27-4.8,.27-1.58-2.62-3.43-5.74-5.33-8.83-1.34-2.17-2.54-4.46-4.57-6.1-2.8-2.25-5.88-2.91-9.17-1.18-3.23,1.7-4.63,4.53-4.55,8.11,.04,1.87,.84,3.52,1.77,5.12,1.66,2.83,3.3,5.67,4.9,8.54,2.22,3.96,2.07,4.33-1.21,7.39-3.46,3.24-6.79,6.62-10.19,9.92-1.41,1.37-2.16,3.44-4.21,4.05-1.68,.24-2.86-.72-4.11-1.42-3.19-1.77-6.29-3.72-9.55-5.33-4.96-2.45-9.7-1.32-12.04,2.64-2.51,4.25-1.47,8.55,3.1,11.88,2.2,1.6,4.67,2.84,7,4.27,2.15,1.32,4.62,2.22,5.93,4.32,.5,1.58-.15,2.74-.59,3.92-1.86,4.97-3.31,10.03-4.15,15.28-.76,4.74-1.55,5.3-6.52,5.43-3.65,.09-7.31-.11-10.94,.16-5.09,.38-8.45,3.92-8.35,8.39,.09,4.51,3.54,7.87,8.58,8.12,3.46,.17,6.93,.03,10.4,.09,5.36,.1,6.06,.61,6.88,5.65,.79,4.89,2.14,9.6,3.8,14.25,1.81,5.07,1.67,5.34-3.17,8.12-3.01,1.72-6.09,3.34-8.94,5.3-4.32,2.96-5.53,7.48-3.36,11.4,2.15,3.89,6.8,5.43,11.4,3.46,2.67-1.14,5.11-2.8,7.7-4.13,2.38-1.22,4.52-3.12,7.81-2.9,3.71,4.56,7.74,9.08,12.42,12.81,4.44,3.53,4.75,4.62,1.55,10.02-1.67,2.82-3.52,5.57-4.94,8.51-2.13,4.41-.65,9.21,3.22,11.46,4.03,2.34,8.61,1.31,11.52-2.75,1.27-1.77,2.18-3.79,3.36-5.63,1.74-2.72,2.87-5.87,5.61-8.19,6.18,1.73,12.13,4.05,18.4,5.2,5.72,1.05,5.84,1.35,5.94,7.14,.06,3.46-.11,6.95,.19,10.39,.4,4.62,3.35,7.6,7.52,8.1,3.96,.48,7.55-2.06,9.03-6.42,.65-1.92,.84-3.92,.86-5.93,.02-2.37-.03-4.74,.06-7.11,.17-4.56,.66-5.29,5.23-6.19,5.57-1.1,11-2.6,16.3-4.6,.86-.33,1.76-.49,2.82,0,1.49,.94,2.11,2.71,3.02,4.27,1.47,2.52,2.86,5.09,4.43,7.55,3.23,5.03,7.71,6.58,12.01,4.28,4.42-2.36,5.62-6.87,3.09-12.31-1.15-2.47-2.7-4.75-3.97-7.18-1.08-2.06-2.7-3.94-2.47-6.94,3.93-4.61,9.43-8.06,13.28-13.23,3.21-4.31,3.97-4.08,8.66-1.46,3.49,1.95,6.67,4.54,10.56,5.72,4.21,1.29,8.35-.46,10.27-4.13,1.93-3.68,1.19-7.31-2.23-10.29-2.35-2.05-5.1-3.5-7.81-5.01-2.35-1.31-4.92-2.36-6.81-5.09,3.12-7.44,4.87-15.41,6.44-22.81,2.72-1.7,4.96-1.25,7.11-1.32,3.46-.11,6.95,.11,10.38-.26,4.09-.44,6.95-3.84,7.1-7.79,.16-4.18-2.73-7.75-6.99-8.47Zm-99.69,72.99c-34.83,.13-64.57-26.97-64.6-64.78-.02-36.83,27.93-64.54,64.56-64.82,38.35-.29,65.04,31.25,65.02,65.08-.78,35.94-28.15,64.39-64.98,64.52Z"/></g></svg>