<?xml version="1.0" encoding="UTF-8"?><svg id="Layer_1" xmlns="http://www.w3.org/2000/svg" viewBox="0 0 500 500"><defs><style>.cls-1{fill:#7f7f7f;}</style></defs><g id="Special_Release_Icon"><path class="cls-1" d="M466.28,412.14l-21.81-27.85c-13.18-16.84-26.35-33.68-39.62-50.46,4.63-1.74,9.23-3.58,13.82-5.42,5.28-2.11,10.56-4.23,15.89-6.19,6.87-2.5,9.43-7.38,7.59-14.48-1.42-5.55-2.77-11.11-4.12-16.67-1.75-7.23-3.49-14.44-5.41-21.63-.52-1.95-.32-2.39,.86-3.57,6.46-6.46,12.83-13.01,19.2-19.56l8.51-8.73c5.88-6.02,6.06-9.7,.83-16.44l-8.28-10.71c-5.41-7.01-10.81-14.01-16.32-20.94-.76-.95-.78-1.15-.35-2.29,4.72-12.27,9.29-24.62,13.86-36.95,3.23-8.73,1.98-11.97-6.38-16.49l-8.21-4.47c-8.41-4.58-16.81-9.16-25.35-13.48-1.98-1-2.44-1.77-2.55-4.36-.39-8.86-.92-17.71-1.45-26.57l-.73-12.43c-.47-8.42-5.65-10.52-9.92-10.81-5.76-.39-11.53-.83-17.31-1.27-8.06-.62-16.12-1.23-24.2-1.7-1.38-.08-1.62-.24-2.3-1.56-5.65-11-11.43-21.95-17.2-32.91l-1.34-2.54c-3.93-7.45-7.39-8.77-15.39-5.92l-4.66,1.65c-10.85,3.85-21.7,7.7-32.48,11.76-1.47,.55-1.98,.5-3.23-.52-4.36-3.52-8.77-6.98-13.17-10.44-6.08-4.77-12.15-9.55-18.1-14.46-5.55-4.57-11.02-4.25-16.3,.94-3.99,3.95-8.06,7.83-12.12,11.72-5.23,5-10.45,10-15.56,15.14-1.72,1.73-2.56,1.99-4.81,1.36-10.65-2.97-21.38-5.7-32.11-8.44l-5.12-1.31c-8.26-2.12-11.93-.23-15.15,7.68l-2.36,5.79c-4.2,10.25-8.39,20.49-12.48,30.79-.59,1.49-.76,1.56-2.07,1.76-6.66,1.01-13.29,2.17-19.93,3.33-6.65,1.17-13.31,2.35-19.98,3.35-7.01,1.05-10.27,5.07-9.97,12.31,.27,6.44,.47,12.87,.65,19.32,.2,6.91,.4,13.82,.71,20.73,.06,1.43-.07,1.86-1.55,2.82-9.21,5.97-18.35,12.07-27.47,18.15l-5.52,3.68c-7.28,4.86-8.16,8.2-4.28,16.27l3.96,8.25c4.37,9.13,8.74,18.25,13.24,27.32,.67,1.36,.61,1.64-.12,2.75-3.4,5.22-6.74,10.49-10.06,15.76-3.79,6-7.58,12-11.48,17.92-4.07,6.16-3.3,11.61,2.29,16.19,4.17,3.42,8.28,6.9,12.4,10.4,5.56,4.71,11.13,9.42,16.83,13.97,2.34,1.85,2.83,3.26,2.26,6.53-1.3,7.62-2.44,15.26-3.58,22.9-.72,4.87-1.45,9.75-2.22,14.63-1.09,6.95,2.06,11.71,8.87,13.38,4.43,1.09,8.8,2.4,13.39,3.78l.53,.17c-18.12,23.16-36.25,46.33-54.58,69.64-2.08,2.64-5.56,7.05-2.49,12.75,2.86,5.29,8.11,4.86,10.94,4.63l.87-.07c20.67-1.31,41.33-2.63,62.73-4.02,.22-.02,.48-.03,.73-.05,1.33,8.34,2.86,16.64,4.39,24.94l3.2,17.57c1.3,7.19,2.59,14.38,3.93,21.55,.42,2.33,1.44,7.77,7.39,9.22,.81,.2,1.59,.29,2.32,.29,4.7,0,7.49-3.68,8.5-5.01l17.06-21.83c14.94-19.09,29.89-38.16,44.76-57.3,1.78,2.34,3.68,4.57,5.59,6.8,1.03,1.21,2.07,2.43,3.09,3.67,5.42,6.57,9.23,7.21,16.28,2.85l5.68-3.51c9.33-5.75,18.66-11.52,27.88-17.44,1.35-.85,1.85-.95,3.63-.04,6.84,3.5,13.74,6.9,20.63,10.3,5.22,2.58,10.44,5.15,15.63,7.77,7.16,3.63,11.2,.26,12.92-1.99,12.92,16.65,25.91,33.25,38.9,49.85l15.99,20.44c1.79,2.29,5.09,6.54,11.06,5.13,6.05-1.43,7.05-6.79,7.58-9.67l2.33-12.6c3.09-16.64,6.17-33.27,9.01-49.96,.08-.48,.17-.81,.17-.99,.27,0,.67,0,1.32,.04,15.5,1.1,31.01,2.05,46.53,3.01l16.43,1.03c2.81,.25,8.04,.65,10.89-4.57,3.14-5.75-.38-10.17-2.9-13.35Zm-363.48-57.68l3.94-5.05c.15-.21,.35-.47,.53-.71,1.26,.51,2.5,.77,3.63,1.01,2.92,.62,3.14,.84,3.48,2.19,2.54,10.02,5.38,19.97,8.22,29.91l2.45,8.66c2.33,8.18,5.75,10.4,14.3,9.19,6.79-.99,13.59-1.95,20.38-2.9,6.4-.9,12.78-1.8,19.18-2.72,.89-.15,1-.11,1.74,.72,2.07,2.34,4.22,4.75,4.4,5.44-.13,.84-2.2,3.48-4.21,6.05l-48.09,61.61-6.98-38c-.82-4.51-1.63-9.03-2.39-13.54-1.01-6.14-4.8-9.46-10.73-9.46-.37,0-.74,0-1.11,.03-14.61,.98-29.23,1.85-43.85,2.71l-8.42,.5,43.53-55.64Zm78.02,20.55c-4.84,.69-9.68,1.33-14.52,1.97-7.2,.95-14.4,1.9-21.57,3.01-2.28,.36-2.92,.25-2.98,.23,0,0-.4-.41-.78-2.13-1.58-7.04-3.58-14.03-5.53-20.8-1.33-4.62-2.66-9.25-3.86-13.9-1.41-5.47-4.73-8.75-10.47-10.32-5.16-1.41-10.3-2.93-15.43-4.45-6.49-1.93-13-3.85-19.54-5.56-1.06-.28-1.55-.52-1.51-.48-.02-.16-.05-.57,.09-1.43,.84-5.31,1.63-10.63,2.42-15.94,1.04-7.01,2.08-14.01,3.24-20.99,.88-5.23-.57-9.2-4.58-12.47-4.13-3.39-8.21-6.86-12.28-10.32-5.46-4.64-10.91-9.28-16.51-13.76-.68-.54-.99-.89-1.11-.93,.08-.22,.31-.71,.89-1.59,3.84-5.72,7.51-11.55,11.18-17.39,2.89-4.6,5.78-9.2,8.76-13.74,2.98-4.53,3.23-8.9,.81-13.72-2.59-5.16-5.08-10.35-7.58-15.56-2.9-6.05-5.8-12.09-8.85-18.05-.3-.6-.46-.98-.56-1.11,.17-.15,.45-.37,.91-.66,6.1-3.87,12.11-7.88,18.11-11.9,4.52-3.03,9.05-6.05,13.61-9.01,4.25-2.75,6.14-6.36,5.95-11.35-.27-6.9-.46-13.8-.64-20.71-.17-6.1-.33-12.19-.55-18.28,0-.1,0-.18,0-.27h0c6.77-1.03,13.51-2.21,20.25-3.39,6.05-1.06,12.1-2.12,18.16-3.07,5.09-.8,8.37-3.46,10.31-8.37,2.01-5.08,4.08-10.15,6.15-15.2,2.59-6.32,5.17-12.65,7.65-19.02,.46-1.17,.74-1.62,.7-1.7,.24,.09,.65,.03,1.58,.3,6.74,1.98,13.56,3.68,20.37,5.38,4.97,1.24,9.94,2.48,14.87,3.83,5.75,1.58,10.44,.34,14.69-3.91,4.7-4.72,9.51-9.31,14.32-13.9,4.09-3.92,8.18-7.83,12.21-11.81,.24-.23,.43-.42,.58-.55,.1,.07,.22,.17,.34,.28,4.72,3.92,9.54,7.71,14.37,11.5,4.72,3.72,9.46,7.43,14.07,11.28,5.27,4.37,10.3,5.26,16.33,2.89,5.69-2.26,11.48-4.29,17.26-6.32,5.48-1.93,10.96-3.85,16.37-5.96,.74-.29,1.2-.42,1.34-.52,.13,.19,.35,.54,.64,1.13,2.59,5.27,5.33,10.46,8.08,15.65,2.84,5.37,5.7,10.75,8.35,16.22,2.85,5.87,7.28,8.78,13.94,9.14,5.38,.3,10.76,.67,16.14,1.04,6.06,.42,12.12,.84,18.19,1.15,1.94,.11,2.37,.31,2.38,.25,0,0,.25,.44,.29,1.92,.22,7.64,.8,15.27,1.37,22.9,.37,4.86,.73,9.72,1.01,14.59,.27,4.9,2.51,8.27,7.04,10.65,4.32,2.25,8.59,4.59,12.86,6.92,6.7,3.67,13.41,7.33,20.25,10.69,.74,.37,1.11,.63,1.24,.65-.04,.26-.17,.78-.57,1.8-2.25,5.76-4.39,11.57-6.54,17.37-2.12,5.72-4.23,11.44-6.44,17.12-1.97,5.05-1.31,9.36,2.05,13.57,3.82,4.77,7.55,9.61,11.28,14.45,4,5.19,8,10.38,12.11,15.49,.18,.22,.32,.41,.42,.56-.09,.09-.2,.21-.33,.34-4.25,4.17-8.39,8.44-12.54,12.72-4.43,4.57-8.86,9.15-13.42,13.58-4.59,4.47-5.95,9.41-4.27,15.53,1.74,6.41,3.32,12.86,4.9,19.33,1.3,5.3,2.59,10.59,3.98,15.88,.12,.47,.17,.78,.23,.91-.18,.1-.47,.24-.94,.42-6.54,2.45-13.02,5.03-19.51,7.62-5.26,2.1-10.5,4.19-15.79,6.21-4.9,1.87-7.58,5.13-8.43,10.25-1.29,7.78-2.69,15.55-4.09,23.31l-2.59,14.56c-.02,.12-.04,.25-.07,.38l-10.42-.39c-9.33-.35-18.86-.7-28.39-1.21-5.19-.29-9.21,1.71-12.24,6.28-2.8,4.22-5.66,8.4-8.53,12.58-4.21,6.14-8.42,12.27-12.42,18.54-.23,.37-.42,.62-.5,.77-.24-.09-.61-.26-1.16-.54-4.92-2.54-9.9-4.99-14.88-7.43-5.9-2.89-11.78-5.78-17.59-8.85-5.61-2.95-10.58-2.7-16.07,.9-5.79,3.8-11.68,7.43-17.58,11.05-4.57,2.81-9.15,5.62-13.66,8.51-.13,.09-.26,.16-.36,.22-.07-.07-.13-.16-.21-.25-4.09-5.1-8.26-10.12-12.42-15.15-4.02-4.85-8.05-9.7-12-14.62-2.7-3.35-5.9-5.01-9.75-5.01-.68,0-1.38,.06-2.1,.16Zm139.78,31.67c3.96-5.33,8.12-11.11,11.79-17.34,1.26-2.14,2.36-2.9,5.67-2.62,11.58,.81,23.19,1.31,34.8,1.81l1.72,.07c9.43,.33,12.53-2.05,14.19-11.42,1.46-8.27,2.95-16.55,4.53-25.29l.35-1.96,47.09,60.16-14.59-.9c-12.14-.75-24.28-1.51-36.42-2.18-9.75-.65-11.97,2.95-13.39,10.97-2.48,13.95-5.03,27.89-7.63,42.03l-1.46,7.94c-.07-.09-.13-.19-.2-.28-.64-.89-1.28-1.78-1.95-2.63-6.99-8.86-13.94-17.74-20.88-26.62-7.81-10-15.62-19.98-23.49-29.93-.46-.57-.62-.9-.68-.93,.05-.12,.19-.41,.56-.89Z"/><path class="cls-1" d="M249.54,366.1c40.12,0,77.83-15.51,106.22-43.73,28.53-28.34,44.31-66.16,44.42-106.5,.23-82.51-66.44-149.86-148.62-150.13h-.51c-40.61,0-78.55,15.48-106.9,43.62-28.46,28.26-44.2,66.26-44.32,107.01-.24,80.86,68.06,149.42,149.13,149.73h.57Zm.41-18.81h-.14c-72.23-.07-131.09-58.77-131.2-130.87-.06-35.16,13.56-68.25,38.35-93.17,24.77-24.92,57.71-38.67,92.76-38.7h.13c34.96,0,67.93,13.61,92.85,38.35,24.93,24.77,38.68,57.57,38.7,92.38,.02,35.35-13.71,68.57-38.69,93.54-24.82,24.82-57.75,38.48-92.76,38.48Z"/><path class="cls-1" d="M327.25,186.68l-14.64-1.79c-10.41-1.28-20.82-2.56-31.24-3.63-1.51-.16-1.9-.37-2.92-2.41-4.63-9.32-9.38-18.59-14.13-27.86l-6.37-12.46c-1.27-2.56-3.4-6.84-9.08-6.95-6.36-.22-8.54,4.84-9.94,7.91l-5.3,11.41c-4.37,9.39-8.75,18.78-12.8,28.31-1.09,2.57-2.15,3.32-5.39,3.8-9.16,1.36-18.3,2.83-27.44,4.3l-16.1,2.56c-2.78,.44-7.95,1.26-9.35,7.21-1.34,5.68,2.53,9.22,4.17,10.74,2.85,2.61,5.65,5.3,8.44,7.98,6.06,5.85,12.34,11.88,19.21,17.11,6.4,4.86,7.91,9.41,5.95,18.05-2.02,8.9-3.32,17.9-4.57,26.59-.52,3.66-1.05,7.28-1.61,10.8l-.05,.54c-.2,6.25,2.66,8.94,4.38,10,.91,.57,2.41,1.21,4.42,1.21,1.66,0,3.68-.44,6.03-1.74,13.48-7.44,26.93-14.95,40.26-22.67,1.8-1.04,2.51-1.06,4.32-.12,9.05,4.77,18.17,9.4,27.28,14.03l13.32,6.79c2.48,1.3,7.09,3.68,11.76-.22,4.46-3.71,3.44-8.71,2.95-11.11-1.17-5.74-2.29-11.48-3.41-17.22-1.75-9.01-3.51-18.03-5.46-27-.51-2.32-.21-3.26,1.6-5.02,7.62-7.43,15.14-14.99,22.66-22.54l9.22-9.23c1.92-1.9,5.49-5.46,3.49-10.91-2.04-5.54-7.2-6.15-9.69-6.44Zm-108.65,67.48c.77-4.93,1.55-9.87,2.49-14.76,1.2-6.1-2.75-9.71-4.65-11.44-7.3-6.69-14.58-13.41-22.19-20.44l-1.99-1.84,18.01-2.92c5.02-.8,10.05-1.56,15.09-2.23,4.61-.62,7.88-3.23,10.01-8,4.09-9.11,8.27-18.17,12.46-27.22l1.24-2.69,.68,1.33c4.7,9.08,9.4,18.17,13.87,27.37,2.56,5.26,6.43,7.87,12.55,8.43,9.41,.86,18.79,1.98,28.17,3.1l3.74,.45c-2.5,2.28-4.91,4.51-7.27,6.79-2.87,2.79-5.69,5.62-8.52,8.46-2.73,2.74-5.46,5.48-8.23,8.18-3.58,3.48-4.74,7.34-3.66,12.18,2.06,9.16,3.85,18.38,5.64,27.6l.99,5.05-15.33-7.64c-4.32-2.13-8.64-4.24-12.78-6.65-5.31-3.11-10.3-3.05-15.68,.12-7.98,4.71-16.07,9.21-24.5,13.9l-3.07,1.71c.95-6.24,1.85-12.19,2.89-18.85Z"/></g></svg>